<svg width="1200" height="630" xmlns="http://www.w3.org/2000/svg">
  <defs>
    <linearGradient id="bg" x1="0%" y1="0%" x2="100%" y2="100%">
      <stop offset="0%" style="stop-color:#0a0a0f"/>
      <stop offset="100%" style="stop-color:#1a1a2e"/>
    </linearGradient>
    <linearGradient id="green" x1="0%" y1="0%" x2="100%" y2="100%">
      <stop offset="0%" style="stop-color:#239F40"/>
      <stop offset="100%" style="stop-color:#1a7a30"/>
    </linearGradient>
  </defs>

  <!-- Background -->
  <rect width="1200" height="630" fill="url(#bg)"/>

  <!-- Ambient glow -->
  <circle cx="300" cy="200" r="300" fill="rgba(35,159,64,0.15)"/>
  <circle cx="900" cy="400" r="250" fill="rgba(220,53,69,0.1)"/>

  <!-- Title -->
  <text x="600" y="180" font-family="Inter, -apple-system, sans-serif" font-size="64" font-weight="800" fill="white" text-anchor="middle">
    Flags Belong to Nations
  </text>
  <text x="600" y="260" font-family="Inter, -apple-system, sans-serif" font-size="64" font-weight="800" fill="white" text-anchor="middle">
    Not Platforms
  </text>

  <!-- Rejected flag box -->
  <rect x="280" y="320" width="180" height="180" rx="20" fill="#1a1a2e" stroke="rgba(255,255,255,0.1)" stroke-width="2"/>
  <text x="370" y="430" font-size="100" text-anchor="middle">🇮🇷</text>
  <text x="370" y="430" font-size="140" font-weight="bold" fill="rgba(220,53,69,0.7)" text-anchor="middle">✕</text>
  <text x="370" y="540" font-family="Inter, sans-serif" font-size="24" font-weight="600" fill="#dc3545" text-anchor="middle">Unauthorized</text>

  <!-- Arrow -->
  <text x="600" y="420" font-size="60" fill="#239F40" text-anchor="middle">→</text>

  <!-- Approved flag box -->
  <rect x="740" y="320" width="180" height="180" rx="20" fill="#1a1a2e" stroke="rgba(35,159,64,0.5)" stroke-width="2"/>
  <rect x="760" y="340" width="140" height="45" fill="#239F40"/>
  <rect x="760" y="385" width="140" height="50" fill="white"/>
  <rect x="760" y="435" width="140" height="45" fill="#dc3545"/>
  <text x="830" y="560" font-family="Inter, sans-serif" font-size="24" font-weight="600" fill="#239F40" text-anchor="middle">Official</text>

  <!-- Badge -->
  <rect x="450" y="570" width="300" height="40" rx="20" fill="rgba(255,255,255,0.1)"/>
  <text x="600" y="598" font-family="Inter, sans-serif" font-size="20" fill="rgba(255,255,255,0.7)" text-anchor="middle">restoreiranflag.com</text>
</svg>
